<?xml version="1.0"?>
<svg xmlns:rdf="http://www.w3.org/1999/02/22-rdf-syntax-ns#"
     xmlns="http://www.w3.org/2000/svg"
     xmlns:cc="http://web.resource.org/cc/"
     xmlns:dc="http://purl.org/dc/elements/1.1/"
     xmlns:svg="http://www.w3.org/2000/svg"
     id="clock"
     xml:space="preserve"
     version="1.0"
     viewBox="0 0 40 40">
    <circle cx="20" cy="20" r="19"></circle>
    <g class="marks">
        <line x1="15" y1="0" x2="16" y2="0"></line>
        <line x1="15" y1="0" x2="16" y2="0"></line>
        <line x1="15" y1="0" x2="16" y2="0"></line>
        <line x1="15" y1="0" x2="16" y2="0"></line>
        <line x1="15" y1="0" x2="16" y2="0"></line>
        <line x1="15" y1="0" x2="16" y2="0"></line>
        <line x1="15" y1="0" x2="16" y2="0"></line>
        <line x1="15" y1="0" x2="16" y2="0"></line>
        <line x1="15" y1="0" x2="16" y2="0"></line>
        <line x1="15" y1="0" x2="16" y2="0"></line>
        <line x1="15" y1="0" x2="16" y2="0"></line>
        <line x1="15" y1="0" x2="16" y2="0"></line>
    </g>
    <line x1="0" y1="0" x2="9" y2="0" class="hour"/>
    <line x1="0" y1="0" x2="13" y2="0" class="minute"/>
    <line x1="0" y1="0" x2="16" y2="0" class="seconds"/>
    <circle cx="20" cy="20" r="0.7" class="pin"></circle>
</svg>
